<?xml version="1.0" encoding="UTF-8" standalone="no"?>
<svg
   xmlns:dc="http://purl.org/dc/elements/1.1/"
   xmlns:cc="http://creativecommons.org/ns#"
   xmlns:rdf="http://www.w3.org/1999/02/22-rdf-syntax-ns#"
   xmlns:svg="http://www.w3.org/2000/svg"
   xmlns="http://www.w3.org/2000/svg"
   xmlns:sodipodi="http://sodipodi.sourceforge.net/DTD/sodipodi-0.dtd"
   xmlns:inkscape="http://www.inkscape.org/namespaces/inkscape"
   id="a594ac37-6d44-4297-8862-1cbd9c01c0b7"
   width="100%"
   height="100%"
   data-name="Layer 1"
   preserveAspectRatio="xMidYMid meet"
   viewBox="0 0 1126.19355 855"
   version="1.1"
   sodipodi:docname="undraw_code_review.svg"
   inkscape:version="0.92.4 (33fec40, 2019-01-16)">
  <metadata
     id="metadata42">
    <rdf:RDF>
      <cc:Work
         rdf:about="">
        <dc:format>image/svg+xml</dc:format>
        <dc:type
           rdf:resource="http://purl.org/dc/dcmitype/StillImage" />
      </cc:Work>
    </rdf:RDF>
  </metadata>
  <defs
     id="defs40" />
  <sodipodi:namedview
     pagecolor="#ffffff"
     bordercolor="#666666"
     borderopacity="1"
     objecttolerance="10"
     gridtolerance="10"
     guidetolerance="10"
     inkscape:pageopacity="0"
     inkscape:pageshadow="2"
     inkscape:window-width="1920"
     inkscape:window-height="1018"
     id="namedview38"
     showgrid="false"
     inkscape:zoom="0.78071205"
     inkscape:cx="563.09677"
     inkscape:cy="487.78241"
     inkscape:window-x="0"
     inkscape:window-y="32"
     inkscape:window-maximized="1"
     inkscape:current-layer="a594ac37-6d44-4297-8862-1cbd9c01c0b7" />
  <style
     id="style2">
        @keyframes changeOpacity { from { opacity: 0; } to { opacity: 1 } } .line { animation-duration: 0.4s; animation-name: changeOpacity; animation-iteration-count: infinite; animation-direction: alternate; } #line1 { -webkit-animation-delay: .1s; animation-delay: .1s; } #line2 { -webkit-animation-delay: .2s; animation-delay: .2s; } #line3 { -webkit-animation-delay: .3s; animation-delay: .3s; } #line4 { -webkit-animation-delay: .4s; animation-delay: .4s; } #line5 { -webkit-animation-delay: .5s; animation-delay: .5s; } #line6 { -webkit-animation-delay: .6s; animation-delay: .6s; } #line7 { -webkit-animation-delay: .7s; animation-delay: .7s; } #line8 { -webkit-animation-delay: .8s; animation-delay: .8s; } #line9 { -webkit-animation-delay: .9s; animation-delay: .9s; } #line10 { -webkit-animation-delay: 1s; animation-delay: 1s; } #line11 { -webkit-animation-delay: 1.1s; animation-delay: 1.1s; } #line12 { -webkit-animation-delay: 1.2s; animation-delay: 1.2s; } #line13 { -webkit-animation-delay: 1.3s; animation-delay: 1.3s; } #line14 { -webkit-animation-delay: 1.4s; animation-delay: 1.4s; } #line15 { -webkit-animation-delay: 1.5s; animation-delay: 1.5s; } #line16 { -webkit-animation-delay: 1.6s; animation-delay: 1.6s; } #line17 { -webkit-animation-delay: 1.7s; animation-delay: 1.7s; } #line18 { -webkit-animation-delay: 1.8s; animation-delay: 1.8s; } #line19 { -webkit-animation-delay: 1.9s; animation-delay: 1.9s; } #line20 { -webkit-animation-delay: 2s; animation-delay: 2s; }
    </style>
  <title
     id="title4">
        code review
    </title>
  <rect
     id="svgparenthome"
     width="1131.1411"
     height="860.26611"
     x="0.21859752"
     y="0.6088714"
     style="fill:#3f3d56;stroke-width:1.48094821" />
  <path
     id="line1"
     d="M 552.92026,118.17246 H 273.86879 a 3.3865491,3.2827609 0 1 1 0,-6.56551 h 279.05147 a 3.3865491,3.2827609 0 0 1 0,6.56551 z"
     class="line"
     inkscape:connector-curvature="0"
     style="fill:#f2f2f2;stroke-width:1.48094821" />
  <path
     id="line2"
     d="M 858.38679,154.28281 H 419.49031 a 3.3865491,3.2827609 0 0 1 0,-6.56552 h 438.89648 a 3.3865491,3.2827609 0 1 1 0,6.56552 z"
     class="line"
     inkscape:connector-curvature="0"
     style="fill:#f2f2f2;stroke-width:1.48094821" />
  <path
     id="line3"
     d="M 554.27488,190.39315 H 275.2234 a 3.3865491,3.2827609 0 1 1 0,-6.56552 h 279.05148 a 3.3865491,3.2827609 0 1 1 0,6.56552 z"
     class="line"
     inkscape:connector-curvature="0"
     style="fill:#f2f2f2;stroke-width:1.48094821" />
  <path
     id="path10"
     d="M 858.38679,191.04971 H 579.33533 a 3.3865491,3.2827609 0 0 1 0,-6.56552 h 279.05146 a 3.3865491,3.2827609 0 1 1 0,6.56552 z"
     class="line"
     inkscape:connector-curvature="0"
     style="fill:#f2f2f2;stroke-width:1.48094821" />
  <path
     id="line4"
     d="M 554.95219,226.5035 H 275.90072 a 3.3865491,3.2827609 0 0 1 0,-6.56552 h 279.05147 a 3.3865491,3.2827609 0 1 1 0,6.56552 z"
     class="line"
     inkscape:connector-curvature="0"
     style="fill:#f2f2f2;stroke-width:1.48094821" />
  <path
     id="line5"
     d="M 555.6295,262.61384 H 276.57803 a 3.3865491,3.2827609 0 0 1 0,-6.56552 H 555.6295 a 3.3865491,3.2827609 0 1 1 0,6.56552 z"
     class="line"
     inkscape:connector-curvature="0"
     style="fill:#f2f2f2;stroke-width:1.48094821" />
  <path
     id="line6"
     d="m 682.28636,118.82902 h -79.92252 a 3.3865509,3.2827626 0 0 1 0,-6.56552 h 79.92252 a 3.3865509,3.2827626 0 1 1 0,6.56552 z"
     class="line"
     inkscape:connector-curvature="0"
     style="fill:#f2f2f2;stroke-width:1.48094821" />
  <path
     id="line7"
     d="m 682.28636,226.5035 h -79.92252 a 3.3865491,3.2827609 0 0 1 0,-6.56552 h 79.92252 a 3.3865491,3.2827609 0 1 1 0,6.56552 z"
     class="line"
     inkscape:connector-curvature="0"
     style="fill:#f2f2f2;stroke-width:1.48094821" />
  <path
     id="line8"
     d="m 682.28636,261.9573 h -79.92252 a 3.3865491,3.2827609 0 1 1 0,-6.56551 h 79.92252 a 3.3865491,3.2827609 0 1 1 0,6.56551 z"
     class="line"
     inkscape:connector-curvature="0"
     style="fill:#f2f2f2;stroke-width:1.48094821" />
  <path
     id="line9"
     d="M 816.39361,261.9573 H 736.4711 a 3.3865491,3.2827609 0 0 1 0,-6.56551 h 79.92251 a 3.3865491,3.2827609 0 1 1 0,6.56551 z"
     class="line"
     inkscape:connector-curvature="0"
     style="fill:#f2f2f2;stroke-width:1.48094821" />
  <path
     id="line10"
     d="m 353.11399,154.28281 h -79.9225 a 3.3865491,3.2827609 0 0 1 0,-6.56552 h 79.9225 a 3.3865491,3.2827609 0 0 1 0,6.56552 z"
     class="line"
     inkscape:connector-curvature="0"
     style="fill:#f2f2f2;stroke-width:1.48094821" />
  <path
     id="line11"
     d="M 553.25892,649.97938 H 274.20744 a 3.3865491,3.2827609 0 0 1 0,-6.56552 h 279.05148 a 3.3865491,3.2827609 0 0 1 0,6.56552 z"
     class="line"
     inkscape:connector-curvature="0"
     style="fill:#f2f2f2;stroke-width:1.48094821" />
  <path
     id="line12"
     d="M 551.9043,722.20007 H 272.85283 a 3.3865491,3.2827609 0 1 1 0,-6.56552 H 551.9043 a 3.3865491,3.2827609 0 0 1 0,6.56552 z"
     class="line"
     inkscape:connector-curvature="0"
     style="fill:#f2f2f2;stroke-width:1.48094821" />
  <path
     id="line13"
     d="M 552.5816,758.31041 H 273.53013 a 3.3865491,3.2827609 0 1 1 0,-6.5655 H 552.5816 a 3.3865491,3.2827609 0 1 1 0,6.5655 z"
     class="line"
     inkscape:connector-curvature="0"
     style="fill:#f2f2f2;stroke-width:1.48094821" />
  <path
     id="line14"
     d="m 671.78806,722.85663 h -79.92251 a 3.3865491,3.2827609 0 0 1 0,-6.56552 h 79.92251 a 3.3865491,3.2827609 0 0 1 0,6.56552 z"
     class="line"
     inkscape:connector-curvature="0"
     style="fill:#f2f2f2;stroke-width:1.48094821" />
  <path
     id="line15"
     d="m 671.78806,758.31041 h -79.92251 a 3.3865416,3.2827535 0 0 1 0,-6.5655 h 79.92251 a 3.3865416,3.2827535 0 1 1 0,6.5655 z"
     class="line"
     inkscape:connector-curvature="0"
     style="fill:#f2f2f2;stroke-width:1.48094821" />
  <path
     id="line16"
     d="m 805.89532,722.85663 h -79.9225 a 3.3865491,3.2827609 0 1 1 0,-6.56552 h 79.9225 a 3.3865491,3.2827609 0 0 1 0,6.56552 z"
     class="line"
     inkscape:connector-curvature="0"
     style="fill:#f2f2f2;stroke-width:1.48094821" />
  <path
     id="line17"
     d="M 858.72546,686.08973 H 419.82897 a 3.3865491,3.2827609 0 0 1 0,-6.56552 h 438.89649 a 3.3865491,3.2827609 0 0 1 0,6.56552 z"
     class="line"
     inkscape:connector-curvature="0"
     style="fill:#f2f2f2;stroke-width:1.48094821" />
  <path
     id="line18"
     d="m 353.45264,686.08973 h -79.92251 a 3.3865491,3.2827609 0 0 1 0,-6.56552 h 79.92251 a 3.3865491,3.2827609 0 0 1 0,6.56552 z"
     class="line"
     inkscape:connector-curvature="0"
     style="fill:#f2f2f2;stroke-width:1.48094821" />
  <path
     id="line19"
     d="M 858.72546,795.07731 H 419.82897 a 3.3865491,3.2827609 0 1 1 0,-6.56551 h 438.89649 a 3.386543,3.282755 0 0 1 0,6.56551 z"
     class="line"
     inkscape:connector-curvature="0"
     style="fill:#f2f2f2;stroke-width:1.48094821" />
  <path
     id="line20"
     d="m 353.45264,795.07731 h -79.92251 a 3.3865491,3.2827609 0 1 1 0,-6.56551 h 79.92251 a 3.3865491,3.2827609 0 1 1 0,6.56551 z"
     class="line"
     inkscape:connector-curvature="0"
     style="fill:#f2f2f2;stroke-width:1.48094821" />
  <polygon
     id="arrowleft"
     points="535.27,527.21 480.786,472.725 535.72,417.79 519.06,401.13 447.014,472.275 519.06,543.42 "
     transform="matrix(1.5041769,0,0,1.4580781,-294.89121,-235.59979)"
     style="fill:#1890ff" />
  <polygon
     id="arrowright"
     points="609.117,527.21 663.602,472.725 608.667,417.79 625.327,401.13 697.373,472.275 625.327,543.42 "
     transform="matrix(1.5041769,0,0,1.4580781,-294.89121,-235.59979)"
     style="fill:#1890ff" />
  <ellipse
     cx="30.302139"
     cy="22.480043"
     id="circle31"
     rx="13.537593"
     ry="13.122704"
     style="fill:#1890ff;stroke-width:1.48094821" />
  <ellipse
     cx="66.402382"
     cy="22.480043"
     id="circle33"
     rx="13.537593"
     ry="13.122704"
     style="fill:#1890ff;stroke-width:1.48094821" />
  <ellipse
     cx="102.50263"
     cy="22.480043"
     id="circle35"
     rx="13.537593"
     ry="13.122704"
     style="fill:#1890ff;stroke-width:1.48094821" />
</svg>
