<svg id="e3d770ae-065d-49c7-8680-9771fb80e313"    
    width="100%"
    height="100%"
    data-name="Layer 1"
    preserveAspectRatio="xMidYMid meet" 
    xmlns="http://www.w3.org/2000/svg" 
    viewBox="0 0 666 608.61113"
    >
    <defs>
    <style type="text/css">
svg .rotate {
  animation: rotate 5s linear infinite;
  transform-box: fill-box;
  transform-origin: center;
}

@keyframes rotate {
  from { transform: rotate(0deg); }
  to { transform: rotate(360deg); }
}
        @-webkit-keyframes rotate {
            from {-webkit-transform: rotate(0deg);}
            to {-webkit-transform: rotate(360deg);}
        }

        @-moz-keyframes rotate {
            from {-moz-transform: rotate(0deg);}
            to {-moz-transform: rotate(360deg);}
        }

    </style>
    </defs>
    <title>instat_analysis</title>
    <rect x="0" y="266.69446" width="100%" height="350.83333" fill="#3f3d56"/>
    <path d="M641.227,757.89956c-.26384-.43111-6.48471-10.81833-8.64142-32.38762-1.97819-19.78869-.70617-53.14407,16.59237-99.67209,32.77158-88.14421-7.55239-159.26382-7.96442-159.97224l1.98942-1.15414c.10441.17963,10.50958,18.31234,16.65636,47.18592a205.85648,205.85648,0,0,1-8.52578,114.74207c-32.71544,87.99378-8.39329,129.64927-8.144,130.06018Z" transform="translate(-117 -140.69444)" fill="#e6e6e6"/><circle cx="511.41253" cy="305.05216" r="14.94537" fill="#08979c"/><circle cx="558.54792" cy="360.23506" r="14.94537" fill="#e6e6e6"/><circle cx="526.3579" cy="397.02366" r="14.94537" fill="#08979c"/><circle cx="565.44579" cy="428.06404" r="14.94537" fill="#08979c"/><circle cx="514.86146" cy="476.34907" r="14.94537" fill="#e6e6e6"/>
    <path d="M650.25576,758.44968s-14.94536-36.78859,29.89074-64.38Z" transform="translate(-117 -140.69444)" fill="#e6e6e6"/>
    <path d="M631.87528,757.78235s-6.80177-39.12161-59.44635-38.78631Z" transform="translate(-117 -140.69444)" fill="#e6e6e6"/>
    <g class="rotate">
    <path d="M482.43237,485.67971a106.38851,106.38851,0,0,1,31.71637,21.4563l9.22748-9.22748a119.151,119.151,0,0,0-37.536-24.94745Z" transform="translate(-117 -140.69444)" fill="#08979c"/>
    <path d="M339.02747,550.53866A105.9872,105.9872,0,0,1,360.006,513.33242l-9.2428-9.2428a118.816,118.816,0,0,0-24.3305,43.07428Z" transform="translate(-117 -140.69444)" fill="#08979c"/>
    <path d="M534.64783,510.67855l-9.3169,9.31689a105.72766,105.72766,0,0,1,16.16455,32.22614l12.58051-3.37091A118.60685,118.60685,0,0,0,534.64783,510.67855Z" transform="translate(-117 -140.69444)" fill="#e6e6e6"/>
    <path d="M362.89056,492.17531l9.2583,9.25831a105.89423,105.89423,0,0,1,37.06775-20.06409l-3.371-12.58063A118.7428,118.7428,0,0,0,362.89056,492.17531Z" transform="translate(-117 -140.69444)" fill="#08979c"/>
    <path d="M334,582.80556a106.39567,106.39567,0,0,1,1.16479-15.70221L322.531,563.7181a119.83923,119.83923,0,0,0,2.204,48.78046l12.57464-3.36939A105.83469,105.83469,0,0,1,334,582.80556Z" transform="translate(-117 -140.69444)" fill="#08979c"/>
    <path d="M466.12152,685.54537A105.83539,105.83539,0,0,1,440,688.80556c-3.26331,0-6.4903-.15637-9.67926-.44647l-3.4101,12.72669a119.69008,119.69008,0,0,0,42.5802-2.96589Z" transform="translate(-117 -140.69444)" fill="#e6e6e6"/>
    <path d="M342.87415,625.23788l-12.71863,3.408a119.18774,119.18774,0,0,0,26.4472,39.0362l9.22748-9.22748A106.42818,106.42818,0,0,1,342.87415,625.23788Z" transform="translate(-117 -140.69444)" fill="#08979c"/>
    <path d="M557.73883,565.46895l-12.657,3.39142a106.27449,106.27449,0,0,1-1.07129,34.40717l12.59955,3.376a119.95675,119.95675,0,0,0,1.12878-41.17463Z" transform="translate(-117 -140.69444)" fill="#e6e6e6"/>
    <path d="M425.84723,477.75289a106.2881,106.2881,0,0,1,40.47638,2.3623l3.36938-12.57464a119.90749,119.90749,0,0,0-47.23724-2.44476Z" transform="translate(-117 -140.69444)" fill="#08979c"/>
    <path d="M413.5,685.45174A105.58742,105.58742,0,0,1,378.92938,669.397l-9.34167,9.34168a118.49819,118.49819,0,0,0,40.54352,19.28558Z" transform="translate(-117 -140.69444)" fill="#e6e6e6"/>
    <path d="M520.29889,670.62527l-9.23639-9.23639a106.30048,106.30048,0,0,1-28.82294,18.627l3.40656,12.71344A119.07423,119.07423,0,0,0,520.29889,670.62527Z" transform="translate(-117 -140.69444)" fill="#e6e6e6"/>
    <path d="M539.39862,619.63149a105.99865,105.99865,0,0,1-16.67773,29.37415L532,658.28475a118.82925,118.82925,0,0,0,20.02789-35.26929Z" transform="translate(-117 -140.69444)" fill="#e6e6e6"/>
    </g>
    <rect x="60" y="286.61113" width="58" height="23" fill="#e6e6e6"/>
    <rect x="60" y="321.61113" width="58" height="23" fill="#08979c"/>
    <path d="M527.9685,196.43021s6.53214,21.46274,2.79949,27.99488,6.53213,20.52958,23.32906,13.99744,17.73009-13.99744,17.73009-13.99744-6.53214-10.26479-8.39847-31.72753Z" transform="translate(-117 -140.69444)" fill="#ffb9b9"/>
    <path d="M442.58412,406.85837s-33.59385,16.79692-18.66325,39.19282c8.67858,13.01787,25.23923,38.33176,37.58667,57.249a190.92873,190.92873,0,0,1,23.51629,51.2709l2.3521,8.12543,9.33162,11.19795,19.59642-22.3959s-28.928-53.19026-28.928-63.455S464.04686,445.118,464.04686,445.118l23.32907-14.9306S461.24738,400.32623,442.58412,406.85837Z" transform="translate(-117 -140.69444)" fill="#ffb9b9"/>
    <path d="M551.76414,464.71445s.93317,26.12855,1.86633,36.39334c.76986,8.46845-6.717,32.18011-4.12115,58.55933a247.96,247.96,0,0,1-.56557,51.278L545.232,644.81482l27.99488,2.79949,9.33163-76.51933s5.599-54.12343,2.79948-71.85352l.93317-37.3265S565.76158,454.44966,551.76414,464.71445Z" transform="translate(-117 -140.69444)" fill="#ffb9b9"/>
    <path d="M501.84,356.001s-65.32138,41.99231-66.25454,55.05659c0,0,37.3265-3.73265,38.25966,28.928,0,0,22.3959-8.39846,27.99488-10.26479s35.46017-21.46274,35.46017-21.46274,12.13112,9.33163,12.13112,24.26223-.93317,41.05915,0,42.92548,22.3959-25.19539,40.126-1.86633l12.13111-64.38822s3.73265-39.19282-3.73265-41.99231l-52.2571-19.59641Z" transform="translate(-117 -140.69444)" fill="#2f2e41"/><circle cx="424.49935" cy="39.40543" r="27.99488" fill="#ffb9b9"/>
    <path d="M534.50064,229.0909s31.57671,8.33979,35.85135-7.49464c0,0,38.80165,7.49464,45.33379,32.69s-15.86377,85.851-15.86377,87.71728,18.66326,13.06428,10.26479,18.66325-15.86376-.93316-12.13111,6.53214,10.26479,9.33162,4.66581,11.19795-39.19283-27.06171-65.32138-19.59641-39.19282,1.86632-39.19282,1.86632L486.39136,259.40765a23.39074,23.39074,0,0,1,8.31622-20.75868c5.848-4.81344,13.60734-10.01393,21.1298-11.42439,14.93061-2.79949,15.55089-4.332,15.55089-4.332Z" transform="translate(-117 -140.69444)" fill="#d0cde1"/>
    <path d="M504.63943,392.39435s8.39847,47.59129,19.59642,41.05915-2.79949-41.05915-2.79949-41.05915Z" transform="translate(-117 -140.69444)" fill="#ffb9b9"/>
    <path d="M543.622,398.553s-14.5518,46.08373-1.60254,45.46763,16.4972-37.70323,16.4972-37.70323Z" transform="translate(-117 -140.69444)" fill="#ffb9b9"/>
    <path d="M492.04174,560.83019s-6.53214-7.4653-10.26479,2.79949-13.99744,23.32906-13.99744,23.32906-22.3959,25.19539-6.53213,26.12855,38.25966-22.3959,38.25966-22.3959l26.12855-24.26223s-8.66-21.09038-12.72847-21.27656S509.77183,570.16181,492.04174,560.83019Z" transform="translate(-117 -140.69444)" fill="#2f2e41"/>
    <path d="M552.69731,638.28268s-6.57635,1.91976-6.08766-6.03884c0,0-23.77355,12.571-17.24141,21.9026s13.99744,18.66325,13.99744,18.66325,34.527,19.59642,37.3265,14.9306,2.79949-13.99743.93316-17.73008-11.198-10.26479-8.39846-15.86377-.93316-20.52957-5.599-20.52957S552.69731,638.28268,552.69731,638.28268Z" transform="translate(-117 -140.69444)" fill="#2f2e41"/>
    <path d="M517.06859,156.3785s9.00566-19.51228,26.26653-15.00944,27.017,11.25708,27.76747,18.01133-.37524,16.88563-.37524,16.88563-1.87618-13.88374-13.88373-10.88185-30.76937.75047-30.76937.75047l-3.00188,27.017s-3.37713-4.87807-7.12949-1.87618S505.061,162.38228,517.06859,156.3785Z" transform="translate(-117 -140.69444)" fill="#2f2e41"/>
    <path d="M599.822,253.35313s-22.3959,60.65556-20.52957,68.12086,0,8.39847-2.79949,10.26479-10.26479,21.46274-10.26479,21.46274-4.66581,11.19795-8.39846,13.99744-3.73265,10.26479-3.73265,10.26479-9.33163,9.33162-7.4653,11.19795,1.86632,4.66581-1.86633,7.4653-7.4653,6.53214-5.599,7.4653,14.9306,11.19795,18.66325,10.26479-1.86633-4.66582,2.79949-6.53214,7.4653-4.66581,5.599-5.599-7.4653-.93316-1.86632-2.79948,25.19539-13.99744,31.72752-28.928,37.82959-105.264,18.9148-117.95337C615.00416,252.04508,607.28731,242.15518,599.822,253.35313Z" transform="translate(-117 -140.69444)" fill="#d0cde1"/>
    <path d="M496.241,243.08834l-.379.1579a23.49829,23.49829,0,0,0-13.9605,16.89678c-2.03768,9.753-4.04256,23.85963-2.45746,37.06875,2.79948,23.32906,4.66581,33.59385,8.39846,41.05915s4.66581,4.66581,3.73265,10.26479-5.599.93316-.93316,8.39846,7.4653,5.599,5.599,9.33163-4.66581,3.73265-.93316,8.39846,3.73265,6.53214,4.66581,8.39846,3.73265,15.86377,3.73265,15.86377,14.9306-4.66582,23.32907-2.79949c0,0-7.46531-13.06428-5.599-15.86376s4.66581-3.73266,1.86633-6.53214-7.46531-1.86633-2.79949-4.66582-3.73265-31.72752-3.73265-31.72752Z" transform="translate(-117 -140.69444)" fill="#d0cde1"/>
    <rect y="616.61113" width="966" height="2" fill="#3f3d56"/>
    </svg>